<svg width="25" height="25" viewBox="0 0 25 25" fill="none" xmlns="http://www.w3.org/2000/svg">
<path d="M15.4412 9.88789L10.3812 14.9479C9.73118 14.2979 9.33118 13.4079 9.33118 12.4179C9.33118 10.4379 10.9312 8.83789 12.9112 8.83789C13.9012 8.83789 14.7912 9.23789 15.4412 9.88789Z" stroke="#242424" stroke-width="1.5" stroke-linecap="round" stroke-linejoin="round"/>
<path d="M18.7311 6.18844C16.9811 4.86844 14.9811 4.14844 12.9111 4.14844C9.3811 4.14844 6.0911 6.22844 3.8011 9.82844C2.9011 11.2384 2.9011 13.6084 3.8011 15.0184C4.5911 16.2584 5.5111 17.3284 6.5111 18.1884" stroke="#242424" stroke-width="1.5" stroke-linecap="round" stroke-linejoin="round"/>
<path d="M9.33118 19.9477C10.4712 20.4277 11.6812 20.6877 12.9112 20.6877C16.4412 20.6877 19.7312 18.6077 22.0212 15.0077C22.9212 13.5977 22.9212 11.2277 22.0212 9.81766C21.6912 9.29766 21.3312 8.80766 20.9612 8.34766" stroke="#242424" stroke-width="1.5" stroke-linecap="round" stroke-linejoin="round"/>
<path d="M16.4211 13.1182C16.1611 14.5282 15.0111 15.6782 13.6011 15.9382" stroke="#242424" stroke-width="1.5" stroke-linecap="round" stroke-linejoin="round"/>
<path d="M10.3811 14.9482L2.91113 22.4182" stroke="#242424" stroke-width="1.5" stroke-linecap="round" stroke-linejoin="round"/>
<path d="M22.9112 2.41797L15.4412 9.88797" stroke="#242424" stroke-width="1.5" stroke-linecap="round" stroke-linejoin="round"/>
</svg>
