<svg width="32" height="32" viewBox="0 0 32 32" fill="none" xmlns="http://www.w3.org/2000/svg">
  <path d="M3.44007 25.3465L3.4134 25.3732C3.0534 24.5865 2.82673 23.6932 2.7334 22.7065C2.82673 23.6799 3.08007 24.5599 3.44007 25.3465Z" fill="#FFFFFF"/>
  <path d="M12 13.8403C13.7526 13.8403 15.1733 12.4196 15.1733 10.667C15.1733 8.9144 13.7526 7.49365 12 7.49365C10.2474 7.49365 8.82666 8.9144 8.82666 10.667C8.82666 12.4196 10.2474 13.8403 12 13.8403Z" fill="#FFFFFF"/>
  <path d="M21.5866 2.6665H10.4133C5.55996 2.6665 2.66663 5.55984 2.66663 10.4132V21.5865C2.66663 23.0398 2.91996 24.3065 3.41329 25.3732C4.55996 27.9065 7.01329 29.3332 10.4133 29.3332H21.5866C26.44 29.3332 29.3333 26.4398 29.3333 21.5865V18.5332V10.4132C29.3333 5.55984 26.44 2.6665 21.5866 2.6665ZM27.16 16.6665C26.12 15.7732 24.44 15.7732 23.4 16.6665L17.8533 21.4265C16.8133 22.3198 15.1333 22.3198 14.0933 21.4265L13.64 21.0532C12.6933 20.2265 11.1866 20.1465 10.12 20.8665L5.13329 24.2132C4.83996 23.4665 4.66663 22.5998 4.66663 21.5865V10.4132C4.66663 6.65317 6.65329 4.6665 10.4133 4.6665H21.5866C25.3466 4.6665 27.3333 6.65317 27.3333 10.4132V16.8132L27.16 16.6665Z" fill="#FFFFFF"/>
</svg>
