<svg width="68" height="67" viewBox="0 0 68 67" fill="#000000" xmlns="http://www.w3.org/2000/svg">
<path d="M34.0075 5.58496C26.6933 5.58496 20.7471 11.5312 20.7471 18.8454C20.7471 26.02 26.3583 31.8266 33.6725 32.0779C33.8958 32.05 34.1192 32.05 34.2867 32.0779C34.3425 32.0779 34.3704 32.0779 34.4262 32.0779C34.4542 32.0779 34.4542 32.0779 34.4821 32.0779C41.6287 31.8266 47.24 26.02 47.2679 18.8454C47.2679 11.5312 41.3217 5.58496 34.0075 5.58496Z" fill="#000000"/>
<path d="M48.1778 39.5037C40.389 34.3112 27.6869 34.3112 19.8424 39.5037C16.2969 41.8767 14.3428 45.0871 14.3428 48.5208C14.3428 51.9546 16.2969 55.1371 19.8144 57.4821C23.7228 60.1063 28.8594 61.4183 33.9961 61.4183C39.1328 61.4183 44.2694 60.1063 48.1778 57.4821C51.6953 55.1092 53.6494 51.9267 53.6494 48.465C53.6215 45.0313 51.6953 41.8487 48.1778 39.5037Z" fill="#000000"/>
</svg>
